<mxfile host="app.diagrams.net" modified="2024-07-23T13:19:13.284Z" agent="Mozilla/5.0 (Windows NT 10.0; Win64; x64) AppleWebKit/537.36 (KHTML, like Gecko) Chrome/126.0.0.0 Safari/537.36 Edg/126.0.0.0" etag="FgoGj343F_kHVXCjOn-n" version="24.7.1" type="github">
  <diagram name="Page-1" id="cO37kT2sqG0ceyI2VDh8">
    <mxGraphModel dx="977" dy="680" grid="1" gridSize="10" guides="1" tooltips="1" connect="1" arrows="1" fold="1" page="1" pageScale="1" pageWidth="827" pageHeight="1169" math="0" shadow="0">
      <root>
        <mxCell id="0" />
        <mxCell id="1" parent="0" />
        <mxCell id="fV0yyooUDu2cBFFDRjJw-1" value="Transformer Encoder" style="rounded=1;whiteSpace=wrap;html=1;" vertex="1" parent="1">
          <mxGeometry x="270" y="320" width="180" height="60" as="geometry" />
        </mxCell>
        <mxCell id="fV0yyooUDu2cBFFDRjJw-2" value="Context&lt;div&gt;encoder&lt;/div&gt;" style="shape=or;whiteSpace=wrap;html=1;" vertex="1" parent="1">
          <mxGeometry x="200" y="440" width="90" height="140" as="geometry" />
        </mxCell>
      </root>
    </mxGraphModel>
  </diagram>
</mxfile>
